<svg xmlns="http://www.w3.org/2000/svg" xmlns:xlink="http://www.w3.org/1999/xlink" viewBox="0,0,256,256" width="40px" height="40px"><g fill="none" fill-rule="nonzero" stroke="none" stroke-width="none" stroke-linecap="butt" stroke-linejoin="miter" stroke-miterlimit="10" stroke-dasharray="" stroke-dashoffset="0" font-family="none" font-weight="none" font-size="none" text-anchor="none" style="mix-blend-mode: normal"><g transform="scale(6.4,6.4)"><path d="M30,17.714c0,0 0,-5.306 0,-5.714c0,-5.523 -4.477,-10 -10,-10c-5.523,0 -10,4.477 -10,10c0,0.408 0,5.714 0,5.714" fill="none" stroke="#a32c85" stroke-width="2"></path><path d="M2.5,37.5v-18.5c0,-1.93 1.57,-3.5 3.5,-3.5h28c1.93,0 3.5,1.57 3.5,3.5v18.5z" fill="#f08b14" stroke="none" stroke-width="1"></path><path d="M34,16c1.654,0 3,1.346 3,3v18h-34v-18c0,-1.654 1.346,-3 3,-3h28M34,15h-28c-2.209,0 -4,1.791 -4,4v19h36v-19c0,-2.209 -1.791,-4 -4,-4z" fill="#a32c85" stroke="none" stroke-width="1"></path><path d="M14,27c0,1.133 -0.867,2 -2,2c-1.133,0 -2,-0.867 -2,-2c0,-1.133 0.867,-2 2,-2c1.133,0 2,0.867 2,2zM28,25c-1.133,0 -2,0.867 -2,2c0,1.133 0.867,2 2,2c1.133,0 2,-0.867 2,-2c0,-1.133 -0.867,-2 -2,-2zM20,25c-1.133,0 -2,0.867 -2,2c0,1.133 0.867,2 2,2c1.133,0 2,-0.867 2,-2c0,-1.133 -0.867,-2 -2,-2z" fill="#ffffff" stroke="none" stroke-width="1"></path></g></g></svg>